<mxfile host="app.diagrams.net" agent="Mozilla/5.0 (Windows NT 10.0; Win64; x64) AppleWebKit/537.36 (KHTML, like Gecko) Chrome/128.0.0.0 Safari/537.36 OPR/114.0.0.0" version="24.8.0">
  <diagram id="C5RBs43oDa-KdzZeNtuy" name="Page-1">
    <mxGraphModel dx="1393" dy="773" grid="1" gridSize="10" guides="1" tooltips="1" connect="1" arrows="1" fold="1" page="1" pageScale="1" pageWidth="827" pageHeight="1169" math="0" shadow="0">
      <root>
        <mxCell id="WIyWlLk6GJQsqaUBKTNV-0" />
        <mxCell id="WIyWlLk6GJQsqaUBKTNV-1" parent="WIyWlLk6GJQsqaUBKTNV-0" />
        <mxCell id="rQDJA_saoaDDTBq-HzXY-0" value="ILibraryItem (Interface)" style="swimlane;fontStyle=0;align=center;verticalAlign=top;childLayout=stackLayout;horizontal=1;startSize=26;horizontalStack=0;resizeParent=1;resizeLast=0;collapsible=1;marginBottom=0;rounded=0;shadow=0;strokeWidth=1;" vertex="1" parent="WIyWlLk6GJQsqaUBKTNV-1">
          <mxGeometry x="500" y="170" width="160" height="80" as="geometry">
            <mxRectangle x="130" y="380" width="160" height="26" as="alternateBounds" />
          </mxGeometry>
        </mxCell>
        <mxCell id="rQDJA_saoaDDTBq-HzXY-3" value="" style="line;html=1;strokeWidth=1;align=left;verticalAlign=middle;spacingTop=-1;spacingLeft=3;spacingRight=3;rotatable=0;labelPosition=right;points=[];portConstraint=eastwest;" vertex="1" parent="rQDJA_saoaDDTBq-HzXY-0">
          <mxGeometry y="26" width="160" height="24" as="geometry" />
        </mxCell>
        <mxCell id="rQDJA_saoaDDTBq-HzXY-1" value="+ GetDetails() : string" style="text;align=left;verticalAlign=top;spacingLeft=4;spacingRight=4;overflow=hidden;rotatable=0;points=[[0,0.5],[1,0.5]];portConstraint=eastwest;" vertex="1" parent="rQDJA_saoaDDTBq-HzXY-0">
          <mxGeometry y="50" width="160" height="26" as="geometry" />
        </mxCell>
        <mxCell id="rQDJA_saoaDDTBq-HzXY-6" value="Book" style="swimlane;fontStyle=0;align=center;verticalAlign=top;childLayout=stackLayout;horizontal=1;startSize=26;horizontalStack=0;resizeParent=1;resizeLast=0;collapsible=1;marginBottom=0;rounded=0;shadow=0;strokeWidth=1;" vertex="1" parent="WIyWlLk6GJQsqaUBKTNV-1">
          <mxGeometry x="330" y="320" width="160" height="270" as="geometry">
            <mxRectangle x="130" y="380" width="160" height="26" as="alternateBounds" />
          </mxGeometry>
        </mxCell>
        <mxCell id="rQDJA_saoaDDTBq-HzXY-8" value="+ Title : string" style="text;align=left;verticalAlign=top;spacingLeft=4;spacingRight=4;overflow=hidden;rotatable=0;points=[[0,0.5],[1,0.5]];portConstraint=eastwest;" vertex="1" parent="rQDJA_saoaDDTBq-HzXY-6">
          <mxGeometry y="26" width="160" height="26" as="geometry" />
        </mxCell>
        <mxCell id="rQDJA_saoaDDTBq-HzXY-10" value="+ Author : string" style="text;align=left;verticalAlign=top;spacingLeft=4;spacingRight=4;overflow=hidden;rotatable=0;points=[[0,0.5],[1,0.5]];portConstraint=eastwest;" vertex="1" parent="rQDJA_saoaDDTBq-HzXY-6">
          <mxGeometry y="52" width="160" height="26" as="geometry" />
        </mxCell>
        <mxCell id="rQDJA_saoaDDTBq-HzXY-11" value="+ ISBN : string" style="text;align=left;verticalAlign=top;spacingLeft=4;spacingRight=4;overflow=hidden;rotatable=0;points=[[0,0.5],[1,0.5]];portConstraint=eastwest;" vertex="1" parent="rQDJA_saoaDDTBq-HzXY-6">
          <mxGeometry y="78" width="160" height="26" as="geometry" />
        </mxCell>
        <mxCell id="rQDJA_saoaDDTBq-HzXY-12" value="+ TotalCopies : int" style="text;align=left;verticalAlign=top;spacingLeft=4;spacingRight=4;overflow=hidden;rotatable=0;points=[[0,0.5],[1,0.5]];portConstraint=eastwest;" vertex="1" parent="rQDJA_saoaDDTBq-HzXY-6">
          <mxGeometry y="104" width="160" height="26" as="geometry" />
        </mxCell>
        <mxCell id="rQDJA_saoaDDTBq-HzXY-13" value="+ AvailableCopies : int" style="text;align=left;verticalAlign=top;spacingLeft=4;spacingRight=4;overflow=hidden;rotatable=0;points=[[0,0.5],[1,0.5]];portConstraint=eastwest;" vertex="1" parent="rQDJA_saoaDDTBq-HzXY-6">
          <mxGeometry y="130" width="160" height="26" as="geometry" />
        </mxCell>
        <mxCell id="rQDJA_saoaDDTBq-HzXY-7" value="" style="line;html=1;strokeWidth=1;align=left;verticalAlign=middle;spacingTop=-1;spacingLeft=3;spacingRight=3;rotatable=0;labelPosition=right;points=[];portConstraint=eastwest;" vertex="1" parent="rQDJA_saoaDDTBq-HzXY-6">
          <mxGeometry y="156" width="160" height="24" as="geometry" />
        </mxCell>
        <mxCell id="rQDJA_saoaDDTBq-HzXY-9" value="+ BorrowCopy() : void" style="text;align=left;verticalAlign=top;spacingLeft=4;spacingRight=4;overflow=hidden;rotatable=0;points=[[0,0.5],[1,0.5]];portConstraint=eastwest;" vertex="1" parent="rQDJA_saoaDDTBq-HzXY-6">
          <mxGeometry y="180" width="160" height="26" as="geometry" />
        </mxCell>
        <mxCell id="rQDJA_saoaDDTBq-HzXY-14" value="+ ReturnCopy() : void" style="text;align=left;verticalAlign=top;spacingLeft=4;spacingRight=4;overflow=hidden;rotatable=0;points=[[0,0.5],[1,0.5]];portConstraint=eastwest;" vertex="1" parent="rQDJA_saoaDDTBq-HzXY-6">
          <mxGeometry y="206" width="160" height="26" as="geometry" />
        </mxCell>
        <mxCell id="rQDJA_saoaDDTBq-HzXY-15" value="+ GetDetails() : string" style="text;align=left;verticalAlign=top;spacingLeft=4;spacingRight=4;overflow=hidden;rotatable=0;points=[[0,0.5],[1,0.5]];portConstraint=eastwest;" vertex="1" parent="rQDJA_saoaDDTBq-HzXY-6">
          <mxGeometry y="232" width="160" height="26" as="geometry" />
        </mxCell>
        <mxCell id="rQDJA_saoaDDTBq-HzXY-16" value="BookCategory" style="swimlane;fontStyle=0;align=center;verticalAlign=top;childLayout=stackLayout;horizontal=1;startSize=26;horizontalStack=0;resizeParent=1;resizeLast=0;collapsible=1;marginBottom=0;rounded=0;shadow=0;strokeWidth=1;" vertex="1" parent="WIyWlLk6GJQsqaUBKTNV-1">
          <mxGeometry x="660" y="320" width="240" height="240" as="geometry">
            <mxRectangle x="130" y="380" width="160" height="26" as="alternateBounds" />
          </mxGeometry>
        </mxCell>
        <mxCell id="rQDJA_saoaDDTBq-HzXY-17" value="+ Name : string" style="text;align=left;verticalAlign=top;spacingLeft=4;spacingRight=4;overflow=hidden;rotatable=0;points=[[0,0.5],[1,0.5]];portConstraint=eastwest;" vertex="1" parent="rQDJA_saoaDDTBq-HzXY-16">
          <mxGeometry y="26" width="240" height="26" as="geometry" />
        </mxCell>
        <mxCell id="rQDJA_saoaDDTBq-HzXY-18" value="- availableBooks : List&lt;Book&gt;" style="text;align=left;verticalAlign=top;spacingLeft=4;spacingRight=4;overflow=hidden;rotatable=0;points=[[0,0.5],[1,0.5]];portConstraint=eastwest;" vertex="1" parent="rQDJA_saoaDDTBq-HzXY-16">
          <mxGeometry y="52" width="240" height="26" as="geometry" />
        </mxCell>
        <mxCell id="rQDJA_saoaDDTBq-HzXY-19" value="- notAvailableBooks : List&lt;Book&gt;" style="text;align=left;verticalAlign=top;spacingLeft=4;spacingRight=4;overflow=hidden;rotatable=0;points=[[0,0.5],[1,0.5]];portConstraint=eastwest;" vertex="1" parent="rQDJA_saoaDDTBq-HzXY-16">
          <mxGeometry y="78" width="240" height="26" as="geometry" />
        </mxCell>
        <mxCell id="rQDJA_saoaDDTBq-HzXY-22" value="" style="line;html=1;strokeWidth=1;align=left;verticalAlign=middle;spacingTop=-1;spacingLeft=3;spacingRight=3;rotatable=0;labelPosition=right;points=[];portConstraint=eastwest;" vertex="1" parent="rQDJA_saoaDDTBq-HzXY-16">
          <mxGeometry y="104" width="240" height="24" as="geometry" />
        </mxCell>
        <mxCell id="rQDJA_saoaDDTBq-HzXY-23" value="+ AddBook(book : Book) : void" style="text;align=left;verticalAlign=top;spacingLeft=4;spacingRight=4;overflow=hidden;rotatable=0;points=[[0,0.5],[1,0.5]];portConstraint=eastwest;" vertex="1" parent="rQDJA_saoaDDTBq-HzXY-16">
          <mxGeometry y="128" width="240" height="26" as="geometry" />
        </mxCell>
        <mxCell id="rQDJA_saoaDDTBq-HzXY-24" value="+ RemoveBook(book : Book) : void" style="text;align=left;verticalAlign=top;spacingLeft=4;spacingRight=4;overflow=hidden;rotatable=0;points=[[0,0.5],[1,0.5]];portConstraint=eastwest;" vertex="1" parent="rQDJA_saoaDDTBq-HzXY-16">
          <mxGeometry y="154" width="240" height="26" as="geometry" />
        </mxCell>
        <mxCell id="rQDJA_saoaDDTBq-HzXY-25" value="+ UpdateBookStatus(book : Book) : void" style="text;align=left;verticalAlign=top;spacingLeft=4;spacingRight=4;overflow=hidden;rotatable=0;points=[[0,0.5],[1,0.5]];portConstraint=eastwest;" vertex="1" parent="rQDJA_saoaDDTBq-HzXY-16">
          <mxGeometry y="180" width="240" height="26" as="geometry" />
        </mxCell>
        <mxCell id="rQDJA_saoaDDTBq-HzXY-26" value="+ GetDetails() : string" style="text;align=left;verticalAlign=top;spacingLeft=4;spacingRight=4;overflow=hidden;rotatable=0;points=[[0,0.5],[1,0.5]];portConstraint=eastwest;" vertex="1" parent="rQDJA_saoaDDTBq-HzXY-16">
          <mxGeometry y="206" width="240" height="26" as="geometry" />
        </mxCell>
        <mxCell id="rQDJA_saoaDDTBq-HzXY-27" value="Reader" style="swimlane;fontStyle=0;align=center;verticalAlign=top;childLayout=stackLayout;horizontal=1;startSize=26;horizontalStack=0;resizeParent=1;resizeLast=0;collapsible=1;marginBottom=0;rounded=0;shadow=0;strokeWidth=1;" vertex="1" parent="WIyWlLk6GJQsqaUBKTNV-1">
          <mxGeometry x="870" y="690" width="340" height="190" as="geometry">
            <mxRectangle x="130" y="380" width="160" height="26" as="alternateBounds" />
          </mxGeometry>
        </mxCell>
        <mxCell id="rQDJA_saoaDDTBq-HzXY-28" value="+ Id : int" style="text;align=left;verticalAlign=top;spacingLeft=4;spacingRight=4;overflow=hidden;rotatable=0;points=[[0,0.5],[1,0.5]];portConstraint=eastwest;" vertex="1" parent="rQDJA_saoaDDTBq-HzXY-27">
          <mxGeometry y="26" width="340" height="26" as="geometry" />
        </mxCell>
        <mxCell id="rQDJA_saoaDDTBq-HzXY-29" value="+ Name : string" style="text;align=left;verticalAlign=top;spacingLeft=4;spacingRight=4;overflow=hidden;rotatable=0;points=[[0,0.5],[1,0.5]];portConstraint=eastwest;" vertex="1" parent="rQDJA_saoaDDTBq-HzXY-27">
          <mxGeometry y="52" width="340" height="26" as="geometry" />
        </mxCell>
        <mxCell id="rQDJA_saoaDDTBq-HzXY-30" value="+ Email : string" style="text;align=left;verticalAlign=top;spacingLeft=4;spacingRight=4;overflow=hidden;rotatable=0;points=[[0,0.5],[1,0.5]];portConstraint=eastwest;" vertex="1" parent="rQDJA_saoaDDTBq-HzXY-27">
          <mxGeometry y="78" width="340" height="26" as="geometry" />
        </mxCell>
        <mxCell id="rQDJA_saoaDDTBq-HzXY-31" value="" style="line;html=1;strokeWidth=1;align=left;verticalAlign=middle;spacingTop=-1;spacingLeft=3;spacingRight=3;rotatable=0;labelPosition=right;points=[];portConstraint=eastwest;" vertex="1" parent="rQDJA_saoaDDTBq-HzXY-27">
          <mxGeometry y="104" width="340" height="24" as="geometry" />
        </mxCell>
        <mxCell id="rQDJA_saoaDDTBq-HzXY-32" value="+ BorrowBook(book : Book, category : BookCategory) : void" style="text;align=left;verticalAlign=top;spacingLeft=4;spacingRight=4;overflow=hidden;rotatable=0;points=[[0,0.5],[1,0.5]];portConstraint=eastwest;" vertex="1" parent="rQDJA_saoaDDTBq-HzXY-27">
          <mxGeometry y="128" width="340" height="26" as="geometry" />
        </mxCell>
        <mxCell id="rQDJA_saoaDDTBq-HzXY-33" value="+ ReturnBook(book : Book, category : BookCategory) : void" style="text;align=left;verticalAlign=top;spacingLeft=4;spacingRight=4;overflow=hidden;rotatable=0;points=[[0,0.5],[1,0.5]];portConstraint=eastwest;" vertex="1" parent="rQDJA_saoaDDTBq-HzXY-27">
          <mxGeometry y="154" width="340" height="26" as="geometry" />
        </mxCell>
        <mxCell id="rQDJA_saoaDDTBq-HzXY-37" value="Librarian" style="swimlane;fontStyle=0;align=center;verticalAlign=top;childLayout=stackLayout;horizontal=1;startSize=26;horizontalStack=0;resizeParent=1;resizeLast=0;collapsible=1;marginBottom=0;rounded=0;shadow=0;strokeWidth=1;" vertex="1" parent="WIyWlLk6GJQsqaUBKTNV-1">
          <mxGeometry x="990" y="320" width="340" height="190" as="geometry">
            <mxRectangle x="130" y="380" width="160" height="26" as="alternateBounds" />
          </mxGeometry>
        </mxCell>
        <mxCell id="rQDJA_saoaDDTBq-HzXY-38" value="+ Id : int" style="text;align=left;verticalAlign=top;spacingLeft=4;spacingRight=4;overflow=hidden;rotatable=0;points=[[0,0.5],[1,0.5]];portConstraint=eastwest;" vertex="1" parent="rQDJA_saoaDDTBq-HzXY-37">
          <mxGeometry y="26" width="340" height="26" as="geometry" />
        </mxCell>
        <mxCell id="rQDJA_saoaDDTBq-HzXY-39" value="+ Name : string" style="text;align=left;verticalAlign=top;spacingLeft=4;spacingRight=4;overflow=hidden;rotatable=0;points=[[0,0.5],[1,0.5]];portConstraint=eastwest;" vertex="1" parent="rQDJA_saoaDDTBq-HzXY-37">
          <mxGeometry y="52" width="340" height="26" as="geometry" />
        </mxCell>
        <mxCell id="rQDJA_saoaDDTBq-HzXY-40" value="+ Position : string" style="text;align=left;verticalAlign=top;spacingLeft=4;spacingRight=4;overflow=hidden;rotatable=0;points=[[0,0.5],[1,0.5]];portConstraint=eastwest;" vertex="1" parent="rQDJA_saoaDDTBq-HzXY-37">
          <mxGeometry y="78" width="340" height="26" as="geometry" />
        </mxCell>
        <mxCell id="rQDJA_saoaDDTBq-HzXY-41" value="" style="line;html=1;strokeWidth=1;align=left;verticalAlign=middle;spacingTop=-1;spacingLeft=3;spacingRight=3;rotatable=0;labelPosition=right;points=[];portConstraint=eastwest;" vertex="1" parent="rQDJA_saoaDDTBq-HzXY-37">
          <mxGeometry y="104" width="340" height="24" as="geometry" />
        </mxCell>
        <mxCell id="rQDJA_saoaDDTBq-HzXY-42" value="+ AddBook(book : Book, category : BookCategory) : void" style="text;align=left;verticalAlign=top;spacingLeft=4;spacingRight=4;overflow=hidden;rotatable=0;points=[[0,0.5],[1,0.5]];portConstraint=eastwest;" vertex="1" parent="rQDJA_saoaDDTBq-HzXY-37">
          <mxGeometry y="128" width="340" height="26" as="geometry" />
        </mxCell>
        <mxCell id="rQDJA_saoaDDTBq-HzXY-43" value="+ RemoveBook(book : Book, category : BookCategory) : void" style="text;align=left;verticalAlign=top;spacingLeft=4;spacingRight=4;overflow=hidden;rotatable=0;points=[[0,0.5],[1,0.5]];portConstraint=eastwest;" vertex="1" parent="rQDJA_saoaDDTBq-HzXY-37">
          <mxGeometry y="154" width="340" height="26" as="geometry" />
        </mxCell>
        <mxCell id="rQDJA_saoaDDTBq-HzXY-44" value="Loan" style="swimlane;fontStyle=0;align=center;verticalAlign=top;childLayout=stackLayout;horizontal=1;startSize=26;horizontalStack=0;resizeParent=1;resizeLast=0;collapsible=1;marginBottom=0;rounded=0;shadow=0;strokeWidth=1;" vertex="1" parent="WIyWlLk6GJQsqaUBKTNV-1">
          <mxGeometry x="390" y="690" width="340" height="220" as="geometry">
            <mxRectangle x="130" y="380" width="160" height="26" as="alternateBounds" />
          </mxGeometry>
        </mxCell>
        <mxCell id="rQDJA_saoaDDTBq-HzXY-45" value="+ Book : Book" style="text;align=left;verticalAlign=top;spacingLeft=4;spacingRight=4;overflow=hidden;rotatable=0;points=[[0,0.5],[1,0.5]];portConstraint=eastwest;" vertex="1" parent="rQDJA_saoaDDTBq-HzXY-44">
          <mxGeometry y="26" width="340" height="26" as="geometry" />
        </mxCell>
        <mxCell id="rQDJA_saoaDDTBq-HzXY-46" value="+ Reader : Reader" style="text;align=left;verticalAlign=top;spacingLeft=4;spacingRight=4;overflow=hidden;rotatable=0;points=[[0,0.5],[1,0.5]];portConstraint=eastwest;" vertex="1" parent="rQDJA_saoaDDTBq-HzXY-44">
          <mxGeometry y="52" width="340" height="26" as="geometry" />
        </mxCell>
        <mxCell id="rQDJA_saoaDDTBq-HzXY-47" value="+ LoanDate : DateTime" style="text;align=left;verticalAlign=top;spacingLeft=4;spacingRight=4;overflow=hidden;rotatable=0;points=[[0,0.5],[1,0.5]];portConstraint=eastwest;" vertex="1" parent="rQDJA_saoaDDTBq-HzXY-44">
          <mxGeometry y="78" width="340" height="26" as="geometry" />
        </mxCell>
        <mxCell id="rQDJA_saoaDDTBq-HzXY-51" value="+ ReturnDate : DateTime?" style="text;align=left;verticalAlign=top;spacingLeft=4;spacingRight=4;overflow=hidden;rotatable=0;points=[[0,0.5],[1,0.5]];portConstraint=eastwest;" vertex="1" parent="rQDJA_saoaDDTBq-HzXY-44">
          <mxGeometry y="104" width="340" height="26" as="geometry" />
        </mxCell>
        <mxCell id="rQDJA_saoaDDTBq-HzXY-48" value="" style="line;html=1;strokeWidth=1;align=left;verticalAlign=middle;spacingTop=-1;spacingLeft=3;spacingRight=3;rotatable=0;labelPosition=right;points=[];portConstraint=eastwest;" vertex="1" parent="rQDJA_saoaDDTBq-HzXY-44">
          <mxGeometry y="130" width="340" height="24" as="geometry" />
        </mxCell>
        <mxCell id="rQDJA_saoaDDTBq-HzXY-49" value="+ IssueLoan(category : BookCategory) : void" style="text;align=left;verticalAlign=top;spacingLeft=4;spacingRight=4;overflow=hidden;rotatable=0;points=[[0,0.5],[1,0.5]];portConstraint=eastwest;" vertex="1" parent="rQDJA_saoaDDTBq-HzXY-44">
          <mxGeometry y="154" width="340" height="26" as="geometry" />
        </mxCell>
        <mxCell id="rQDJA_saoaDDTBq-HzXY-50" value="+ CompleteLoan(category : BookCategory) : void" style="text;align=left;verticalAlign=top;spacingLeft=4;spacingRight=4;overflow=hidden;rotatable=0;points=[[0,0.5],[1,0.5]];portConstraint=eastwest;" vertex="1" parent="rQDJA_saoaDDTBq-HzXY-44">
          <mxGeometry y="180" width="340" height="26" as="geometry" />
        </mxCell>
        <mxCell id="rQDJA_saoaDDTBq-HzXY-52" value="" style="endArrow=block;dashed=1;endFill=0;endSize=12;html=1;rounded=0;exitX=0.5;exitY=0;exitDx=0;exitDy=0;entryX=0.5;entryY=1;entryDx=0;entryDy=0;" edge="1" parent="WIyWlLk6GJQsqaUBKTNV-1" source="rQDJA_saoaDDTBq-HzXY-6" target="rQDJA_saoaDDTBq-HzXY-0">
          <mxGeometry width="160" relative="1" as="geometry">
            <mxPoint x="480" y="430" as="sourcePoint" />
            <mxPoint x="640" y="430" as="targetPoint" />
            <Array as="points">
              <mxPoint x="410" y="300" />
              <mxPoint x="580" y="300" />
            </Array>
          </mxGeometry>
        </mxCell>
        <mxCell id="rQDJA_saoaDDTBq-HzXY-53" value="" style="endArrow=block;dashed=1;endFill=0;endSize=12;html=1;rounded=0;exitX=0.25;exitY=0;exitDx=0;exitDy=0;entryX=0.5;entryY=1;entryDx=0;entryDy=0;" edge="1" parent="WIyWlLk6GJQsqaUBKTNV-1" source="rQDJA_saoaDDTBq-HzXY-16" target="rQDJA_saoaDDTBq-HzXY-0">
          <mxGeometry width="160" relative="1" as="geometry">
            <mxPoint x="420" y="330" as="sourcePoint" />
            <mxPoint x="540" y="230" as="targetPoint" />
            <Array as="points">
              <mxPoint x="720" y="300" />
              <mxPoint x="580" y="300" />
            </Array>
          </mxGeometry>
        </mxCell>
        <mxCell id="rQDJA_saoaDDTBq-HzXY-55" value="" style="endArrow=none;startArrow=none;endFill=0;startFill=0;endSize=8;html=1;verticalAlign=bottom;labelBackgroundColor=none;strokeWidth=2;rounded=0;entryX=0.25;entryY=1;entryDx=0;entryDy=0;jumpSize=6;exitX=0.25;exitY=1;exitDx=0;exitDy=0;" edge="1" parent="WIyWlLk6GJQsqaUBKTNV-1" source="rQDJA_saoaDDTBq-HzXY-44" target="rQDJA_saoaDDTBq-HzXY-6">
          <mxGeometry width="160" relative="1" as="geometry">
            <mxPoint x="510" y="940" as="sourcePoint" />
            <mxPoint x="370" y="620" as="targetPoint" />
            <Array as="points">
              <mxPoint x="475" y="940" />
              <mxPoint x="370" y="940" />
              <mxPoint x="370" y="620" />
            </Array>
          </mxGeometry>
        </mxCell>
        <mxCell id="rQDJA_saoaDDTBq-HzXY-56" value="" style="endArrow=none;startArrow=none;endFill=0;startFill=0;endSize=8;html=1;verticalAlign=bottom;labelBackgroundColor=none;strokeWidth=2;rounded=0;jumpSize=6;entryX=0.5;entryY=1;entryDx=0;entryDy=0;exitX=0.75;exitY=1;exitDx=0;exitDy=0;" edge="1" parent="WIyWlLk6GJQsqaUBKTNV-1" source="rQDJA_saoaDDTBq-HzXY-44" target="rQDJA_saoaDDTBq-HzXY-27">
          <mxGeometry width="160" relative="1" as="geometry">
            <mxPoint x="660" y="940" as="sourcePoint" />
            <mxPoint x="90" y="630" as="targetPoint" />
            <Array as="points">
              <mxPoint x="645" y="940" />
              <mxPoint x="1040" y="940" />
            </Array>
          </mxGeometry>
        </mxCell>
        <mxCell id="rQDJA_saoaDDTBq-HzXY-57" value="1" style="endArrow=open;html=1;endSize=12;startArrow=diamondThin;startSize=14;startFill=1;edgeStyle=orthogonalEdgeStyle;align=left;verticalAlign=bottom;rounded=0;exitX=0.75;exitY=1;exitDx=0;exitDy=0;entryX=0.25;entryY=1;entryDx=0;entryDy=0;" edge="1" parent="WIyWlLk6GJQsqaUBKTNV-1" source="rQDJA_saoaDDTBq-HzXY-6" target="rQDJA_saoaDDTBq-HzXY-16">
          <mxGeometry x="-1" y="3" relative="1" as="geometry">
            <mxPoint x="510" y="640" as="sourcePoint" />
            <mxPoint x="670" y="640" as="targetPoint" />
            <Array as="points">
              <mxPoint x="450" y="620" />
              <mxPoint x="720" y="620" />
            </Array>
          </mxGeometry>
        </mxCell>
        <mxCell id="rQDJA_saoaDDTBq-HzXY-59" value="" style="endArrow=none;startArrow=none;endFill=0;startFill=0;endSize=8;html=1;verticalAlign=bottom;labelBackgroundColor=none;strokeWidth=2;rounded=0;exitX=0.75;exitY=1;exitDx=0;exitDy=0;entryX=0.5;entryY=1;entryDx=0;entryDy=0;jumpSize=6;" edge="1" parent="WIyWlLk6GJQsqaUBKTNV-1" source="rQDJA_saoaDDTBq-HzXY-16" target="rQDJA_saoaDDTBq-HzXY-37">
          <mxGeometry width="160" relative="1" as="geometry">
            <mxPoint x="950" y="600" as="sourcePoint" />
            <mxPoint x="1175" y="650" as="targetPoint" />
            <Array as="points">
              <mxPoint x="840" y="620" />
              <mxPoint x="1160" y="620" />
            </Array>
          </mxGeometry>
        </mxCell>
        <mxCell id="rQDJA_saoaDDTBq-HzXY-61" value="" style="endArrow=open;html=1;rounded=0;align=center;verticalAlign=bottom;dashed=1;endFill=0;labelBackgroundColor=none;exitX=0.5;exitY=0;exitDx=0;exitDy=0;entryX=0.5;entryY=0;entryDx=0;entryDy=0;" edge="1" parent="WIyWlLk6GJQsqaUBKTNV-1" source="rQDJA_saoaDDTBq-HzXY-27" target="rQDJA_saoaDDTBq-HzXY-44">
          <mxGeometry relative="1" as="geometry">
            <mxPoint x="50" y="220" as="sourcePoint" />
            <mxPoint x="210" y="220" as="targetPoint" />
            <Array as="points">
              <mxPoint x="1040" y="670" />
              <mxPoint x="560" y="670" />
            </Array>
          </mxGeometry>
        </mxCell>
        <mxCell id="rQDJA_saoaDDTBq-HzXY-62" value="Dependency" style="resizable=0;html=1;align=center;verticalAlign=top;labelBackgroundColor=none;" connectable="0" vertex="1" parent="rQDJA_saoaDDTBq-HzXY-61">
          <mxGeometry relative="1" as="geometry" />
        </mxCell>
        <mxCell id="rQDJA_saoaDDTBq-HzXY-65" value="" style="endArrow=open;html=1;rounded=0;align=center;verticalAlign=bottom;dashed=1;endFill=0;labelBackgroundColor=none;entryX=0.75;entryY=0;entryDx=0;entryDy=0;exitX=0.5;exitY=0;exitDx=0;exitDy=0;" edge="1" parent="WIyWlLk6GJQsqaUBKTNV-1" source="rQDJA_saoaDDTBq-HzXY-37" target="rQDJA_saoaDDTBq-HzXY-16">
          <mxGeometry relative="1" as="geometry">
            <mxPoint x="1050" y="270" as="sourcePoint" />
            <mxPoint x="870" y="290" as="targetPoint" />
            <Array as="points">
              <mxPoint x="1160" y="300" />
              <mxPoint x="840" y="300" />
            </Array>
          </mxGeometry>
        </mxCell>
        <mxCell id="rQDJA_saoaDDTBq-HzXY-66" value="Dependency" style="resizable=0;html=1;align=center;verticalAlign=top;labelBackgroundColor=none;" connectable="0" vertex="1" parent="rQDJA_saoaDDTBq-HzXY-65">
          <mxGeometry relative="1" as="geometry">
            <mxPoint y="-30" as="offset" />
          </mxGeometry>
        </mxCell>
      </root>
    </mxGraphModel>
  </diagram>
</mxfile>
